<mxfile host="app.diagrams.net" modified="2023-10-10T08:27:34.931Z" agent="Mozilla/5.0 (Macintosh; Intel Mac OS X 10_15_7) AppleWebKit/537.36 (KHTML, like Gecko) Chrome/117.0.0.0 Safari/537.36" etag="vGFsR_ztCachO1Zl9tIZ" version="22.0.4" type="device">
  <diagram name="Page-1" id="seG7zJSSqtbQ-tlv_OBM">
    <mxGraphModel dx="816" dy="-581" grid="1" gridSize="10" guides="1" tooltips="1" connect="1" arrows="1" fold="1" page="1" pageScale="1" pageWidth="850" pageHeight="1100" math="0" shadow="0">
      <root>
        <mxCell id="0" />
        <mxCell id="1" parent="0" />
        <mxCell id="XccrYSqTVxr-GO-kQMg5-1" value="" style="shape=image;verticalLabelPosition=bottom;labelBackgroundColor=default;verticalAlign=top;aspect=fixed;imageAspect=0;image=https://repository-images.githubusercontent.com/596892/cc2c69ec-9251-4b33-8283-b86a8659c9cb;" vertex="1" parent="1">
          <mxGeometry x="240" y="1410" width="130" height="130" as="geometry" />
        </mxCell>
        <mxCell id="XccrYSqTVxr-GO-kQMg5-2" value="" style="image;sketch=0;aspect=fixed;html=1;points=[];align=center;fontSize=12;image=img/lib/mscae/Docker.svg;" vertex="1" parent="1">
          <mxGeometry x="450" y="1270" width="50" height="41" as="geometry" />
        </mxCell>
        <mxCell id="XccrYSqTVxr-GO-kQMg5-4" value="" style="shape=image;verticalLabelPosition=bottom;labelBackgroundColor=default;verticalAlign=top;aspect=fixed;imageAspect=0;image=data:image/png,iVBORw0KGgoAAAANSUhEUgAAAVYAAACUCAYAAADI+AGIAAAKqmlDQ1BJQ0MgUHJvZmlsZQAASImVlwdQk9kWx+/3pYcEAgmRTuhNkE4AKSG0AArSwUZIAoQSQiCAiIrK4gquBRURrOgqRcG1ALJWRLEtCopi3SCLgLIuFmyovA8Ygrtv3nvzzsyZ+8vJuf977p17Z84HAJnCFYtTYQoAaaIsSaifFyM6JpaBGwAQIAAK4lguL1PMCgkJAohNj3+39/eQbMTuWE5o/fv//9WU+YJMHgBQCMLx/ExeGsInEX/BE0uyAEDtQ+IGOVniCW5DmCZBCkS4Z4ITp3h4guMnGQ0mc8JD2QjTAMCTuFxJIgAkBhJnZPMSER2SJ8LWIr5QhLAYYfe0tHQ+wscQNkVykBhpQp8Z/51O4t804+WaXG6inKf2Mml4b2GmOJW77P88jv9taanS6TWMESclSfxDkVEFObOelPRAOYvi5wdPs5A/mT/JSVL/iGnmZbJjp5nP9Q6Uz02dHzTNCUJfjlwnixM+zYJMn7BplqSHytdKkLBZ08yVzKwrTYmQx5MEHLl+XlJ41DRnCyPnT3NmSljgTA5bHpdIQ+X1C0R+XjPr+sr3npb53X6FHPncrKRwf/neuTP1C0SsGc3MaHltfIG3z0xOhDxfnOUlX0ucGiLPF6T6yeOZ2WHyuVnIhZyZGyI/w2RuQMg0AzZIB6mISwADBCG/vAHIEuRmTWyEnS5eJhEmJmUxWMgLEzA4Ip7VbIatta0dABPvdeo6vKVPvkOIfn0mtpYIgJtofHz8zEws8DMAJ/UAIMpmYiZdACgi9/7qFp5Ukj0Vm3xLGEAESoAG1IEOMACmwBLYAkfgCjyBDwgAwSAcxIAlgAeSQBpSeQ7IB6tBESgBm8F2UAH2ggOgGhwFx0ETOAMugivgBrgNusEjIAP94CUYAe/BGARBOIgMUSF1SBcygiwgW4gJuUM+UBAUCsVAcVAiJIKkUD60FiqBSqEKaD9UA/0CnYYuQtegTugB1AsNQW+gzzAKJsE0WBs2hufATJgFB8Lh8GI4Ec6A8+BCeCNcDlfBR+BG+CJ8A+6GZfBLeBQFUAooOkoPZYliotioYFQsKgElQa1EFaPKUFWoelQLqh11ByVDDaM+obFoKpqBtkS7ov3REWgeOgO9Er0BXYGuRjei29B30L3oEfQ3DBmjhbHAuGA4mGhMIiYHU4QpwxzCnMJcxnRj+jHvsVgsHWuCdcL6Y2Owydjl2A3Y3dgG7AVsJ7YPO4rD4dRxFjg3XDCOi8vCFeF24o7gzuO6cP24j3gFvC7eFu+Lj8WL8GvwZfha/Dl8F34AP0agEIwILoRgAp+wjLCJcJDQQrhF6CeMEZWJJkQ3YjgxmbiaWE6sJ14mPia+VVBQ0FdwVligIFQoUChXOKZwVaFX4RNJhWROYpMWkaSkjaTDpAukB6S3ZDLZmOxJjiVnkTeSa8iXyE/JHxWpilaKHEW+4irFSsVGxS7FV0oEJSMlltISpTylMqUTSreUhikEijGFTeFSVlIqKacp9ymjylRlG+Vg5TTlDcq1yteUB1VwKsYqPip8lUKVAyqXVPqoKKoBlU3lUddSD1IvU/tpWJoJjUNLppXQjtI6aCOqKqr2qpGquaqVqmdVZXQU3ZjOoafSN9GP0+/RP8/SnsWaJZi1flb9rK5ZH9Q01TzVBGrFag1q3Wqf1RnqPuop6lvUm9SfaKA1zDUWaORo7NG4rDGsSdN01eRpFmse13yoBWuZa4VqLdc6oHVTa1RbR9tPW6y9U/uS9rAOXcdTJ1lnm845nSFdqq67rlB3m+553RcMVQaLkcooZ7QxRvS09Pz1pHr79Tr0xvRN9CP01+g36D8xIBowDRIMthm0GowY6hrOM8w3rDN8aEQwYholGe0wajf6YGxiHGW8zrjJeNBEzYRjkmdSZ/LYlGzqYZphWmV61wxrxjRLMdttdtscNncwTzKvNL9lAVs4Wggtdlt0zsbMdp4tml01+74lyZJlmW1ZZ9lrRbcKslpj1WT1ao7hnNg5W+a0z/lm7WCdan3Q+pGNik2AzRqbFps3tua2PNtK27t2ZDtfu1V2zXav7S3sBfZ77HscqA7zHNY5tDp8dXRylDjWOw45GTrFOe1yus+kMUOYG5hXnTHOXs6rnM84f3JxdMlyOe7yl6ula4prrevgXJO5grkH5/a56btx3fa7ydwZ7nHu+9xlHnoeXI8qj2eeBp58z0OeAywzVjLrCOuVl7WXxOuU1we2C3sF+4I3ytvPu9i7w0fFJ8Knwuepr75vom+d74ifg99yvwv+GP9A/y3+9znaHB6nhjMS4BSwIqAtkBQYFlgR+CzIPEgS1DIPnhcwb+u8x/ON5ovmNwWDYE7w1uAnISYhGSG/LsAuCFlQueB5qE1ofmh7GDVsaVht2Ptwr/BN4Y8iTCOkEa2RSpGLImsiP0R5R5VGyaLnRK+IvhGjESOMaY7FxUbGHoodXeizcPvC/kUOi4oW3Vtssjh38bUlGktSl5xdqrSUu/REHCYuKq427gs3mFvFHY3nxO+KH+GxeTt4L/me/G38IYGboFQwkOCWUJowmOiWuDVxKMkjqSxpWMgWVghfJ/sn703+kBKccjhlPDUqtSENnxaXdlqkIkoRtaXrpOemd4otxEViWYZLxvaMEUmg5FAmlLk4szmLhjRGN6Wm0h+kvdnu2ZXZH3Mic07kKueKcm8uM1+2ftlAnm/ez8vRy3nLW/P18lfn965grdi/EloZv7J1lcGqwlX9BX4F1auJq1NW/7bGek3pmndro9a2FGoXFhT2/eD3Q12RYpGk6P4613V7f0T/KPyxY73d+p3rvxXzi6+XWJeUlXzZwNtw/Sebn8p/Gt+YsLFjk+OmPZuxm0Wb723x2FJdqlyaV9q3dd7Wxm2MbcXb3m1fuv1amX3Z3h3EHdIdsvKg8uadhjs37/xSkVTRXelV2bBLa9f6XR9283d37fHcU79Xe2/J3s/7hPt69vvtb6wyrio7gD2QfeD5wciD7T8zf645pHGo5NDXw6LDsurQ6rYap5qaWq3aTXVwnbRu6MiiI7ePeh9trres399Abyg5Bo5Jj734Je6Xe8cDj7eeYJ6oP2l0ctcp6qniRqhxWeNIU1KTrDmmufN0wOnWFteWU79a/Xr4jN6ZyrOqZzedI54rPDd+Pu/86AXxheGLiRf7Wpe2ProUfelu24K2jsuBl69e8b1yqZ3Vfv6q29Uz11yunb7OvN50w/FG402Hm6d+c/jtVIdjR+Mtp1vNt51vt3TO7TzX5dF18Y73nSt3OXdvdM/v7rwXca/n/qL7sh5+z+CD1AevH2Y/HHtU8BjzuPgJ5UnZU62nVb+b/d4gc5Sd7fXuvfks7NmjPl7fyz8y//jSX/ic/LxsQHegZtB28MyQ79DtFwtf9L8UvxwbLvpT+c9dr0xfnfzL86+bI9Ej/a8lr8ffbHir/vbwO/t3raMho0/fp70f+1D8Uf1j9Sfmp/bPUZ8HxnK+4L6UfzX72vIt8Nvj8bTxcTFXwp1sBVCIwwkJALw5DAA5BgDqbaR/WDjVT08aNPUNMEngP/FUzz1pjgDUI8NEW8S+AMAxxI0LEG3EJ1qicE8A29nJfbr3nezTJwyLfLHs856gB1sXF4B/2FQP/13d/xzBhKo9+Of4L1FBButtxitiAAAAimVYSWZNTQAqAAAACAAEARoABQAAAAEAAAA+ARsABQAAAAEAAABGASgAAwAAAAEAAgAAh2kABAAAAAEAAABOAAAAAAAAAJAAAAABAAAAkAAAAAEAA5KGAAcAAAASAAAAeKACAAQAAAABAAABVqADAAQAAAABAAAAlAAAAABBU0NJSQAAAFNjcmVlbnNob3QlETDNAAAACXBIWXMAABYlAAAWJQFJUiTwAAAB1mlUWHRYTUw6Y29tLmFkb2JlLnhtcAAAAAAAPHg6eG1wbWV0YSB4bWxuczp4PSJhZG9iZTpuczptZXRhLyIgeDp4bXB0az0iWE1QIENvcmUgNi4wLjAiPgogICA8cmRmOlJERiB4bWxuczpyZGY9Imh0dHA6Ly93d3cudzMub3JnLzE5OTkvMDIvMjItcmRmLXN5bnRheC1ucyMiPgogICAgICA8cmRmOkRlc2NyaXB0aW9uIHJkZjphYm91dD0iIgogICAgICAgICAgICB4bWxuczpleGlmPSJodHRwOi8vbnMuYWRvYmUuY29tL2V4aWYvMS4wLyI+CiAgICAgICAgIDxleGlmOlBpeGVsWURpbWVuc2lvbj4xNDg8L2V4aWY6UGl4ZWxZRGltZW5zaW9uPgogICAgICAgICA8ZXhpZjpQaXhlbFhEaW1lbnNpb24+MzQyPC9leGlmOlBpeGVsWERpbWVuc2lvbj4KICAgICAgICAgPGV4aWY6VXNlckNvbW1lbnQ+U2NyZWVuc2hvdDwvZXhpZjpVc2VyQ29tbWVudD4KICAgICAgPC9yZGY6RGVzY3JpcHRpb24+CiAgIDwvcmRmOlJERj4KPC94OnhtcG1ldGE+CqcWjlIAAAAcaURPVAAAAAIAAAAAAAAASgAAACgAAABKAAAASgAAGaBATs45AAAZbElEQVR4AexdB2BVRdb+0l56ISQhgUAaECkWmoCAIO6iKCAg6ipr/VFRLLisZdd17auov2XRhbX8YFkVFLuoIMqCwiJLEemEkAQS0iCN9LzkP3Nf7iv3vVte3oUUz0R5d+7MnJk5c2bmu2fOzPhFpZ/f4gc/tNAf/zIfWA64H/A44Ps44BedPl5IksO10CP7mR8yB1geuD/weCD3BhD+NCQPfoxYGaEwQvEdoTDS537k3I/8ojMIsbJjDjAHmAPMAdM4wIiVdcusWycOMOJkxOmMOH2VB3fEqtQhKMdwDnfVsTB/XDnA8sHy4ayTdZUOdx1lFw23I1a5xvJIzX7bCMH8sCEZlgeWBzFjcH8w1h/cEatyBmE/c4A5wBxgDnjFATtilWci/mVdk5m6JpYnlqdfozyxHatSJ8h+Vx0h84P54awzZXkwJA+MWNkqgK0CnHSHjLAZYZuBsFnH6pXmhCMzB5gDzAF9DjBiZcTKiJURq321nxG7OYjdHbEqdSjKwZnDXXUszB9XDrB8sHw462RdpUO22lO+dfi7iPzYEatcY3nGYr+thZkfthmc5YHlQcwY3B+M9Qd3xOqYO/iJOcAcYA4wB9rAATtilWci/jVHx8J8ZD6asbrMctQ55YjtWJU6Hfa76giZH8wPZ50py4MheWDEylYBbBXgpDtkhNg5EWJHazfWsbZBf8JJmAPMAeaAFgcYsTJiZcTKiNW+2t/RkF9nLY87YlXqUJTDMoe76liYP64cYPlg+XDWybpKh2y1p3zr8HcR+bEjVrnG8gzBflsLMz9sOjeWB5YHMWNwfzDWH9wRq2Pu4CfmAHOAOcAcaAMH7IhVnon4l1dF29v+MiDQgsDIbgiNSURYcn+EJaTCEhOPwLBI+FOYcM1NjbDW16Kpuhz1ZcWoKT6Mmvws1JTkoqWpyY6sWJ5ZnttDntmOVanTYb+rjvA08sM/MAgxGcMQM2AUgrv3goUGV29cQ0Upsj96HvUVxY5kp7H8UqacX7vJT0fiPyNWtgpod6sAf/9ABMf1Qu8Lfo+wnumOQdHLp5r8Qzj02UtorqthxMpy3a5yzTpWLzsvRzeXA+LTvsfIqeh+1ngEBIf5RPzE7h9w5Nu3aJ2t2Sc6nJg54CsHGLHyzN5uM3tgSDjSps9HeFLbUapzBziyehmO797QbvVpD10e65A7pg7ZHbEqdUTOkiueOdxVh8T8ceWAQfkICA5Fn4vmICrtLOKnluGjK3kt375lf5YWsmhkVXcGy6dKgNOz/BuQLztilUdMeQZkv60HMT+M2e15Iy9Cp5o+4x5E9M40bVCtO1GE/W/+heb9ZgmxelMegTQ5Psu7mDHM6u/uiFV1quYA5oDvHPDz90fCsIuROGam78ScKBT/tArHNn7k9IYfmQPtxwE7YpVHav7tmDqbrtIulug49L3qTwgKj26T1NeXl6D+eAEaqo6TvWoj/GnBK6JnBnK/fg21xUfsiKOr8Ivr0Tn7I9uxKnVm7HfVoZnID4FWUybfiuh+wwwPqi20wi82AFRm70DZnh9Qd7zwlJVPKpSJ9WV6xIFfKT8ZsVLL82quQ7d0KhFSVJ9BSJs5n9aq/A0OrC0o2boGpTu+Q31lCbeTkw7wVLYT9wff+wPrWA12cY7mGwf8/AOQcvEcRPcfYYhQc2M9Cjd9gpJtawzF50jMgY7EAUasjFhPCxIUutX0GQsQ3C1eV/5bmq0o/M/nKN78BetMWT5Pi3ya/QXgjliVOhFlN+BwVx0f88eVAyryEZV6JtIuu4t4p2UEaCNVW5yHrA8WQqBWN6dC3x6Pw1k+tUTsNMmHHbHKWmZ55Ga/rQWYH+bYsfa64BrEnTPRPv6pPYhTqw6tWIiaosMUxaHrYnlkeexM8uCOWNUknt8zB3zgQOZ1TyAkNlGXQvm+/5Dp1Ou68TgCc6Ajc8COWGVkxr9sJWD2qrAlLAYDb3lOVw0g0GruqiWoPPQz61ZZt9opdavy+Ml2rEqdC/tddXQm8KNb/+Hoc+lcXYAhjP8Pf/wCn6fqrCM0gf80Qjkc0zNdvj3xlxErI4NTjgx6TbgG8UMudHRulafqI/uR9fHzgNVqOmKNyjgH/gGBKjnbXtcU5rC9LPcHU/oD61g1u1rnDZwzezrOGthXswK/7MnCa//6RDOOr4HCfrXvFQ8gLClNl1Txlq9w7MeVuvG8jSDOeR106wsQZdFyAi1X5u7WisJhzAFDHGDE2kVn6HcWP44pk8ZpCsGXa37ANXMfNGWGlnVLyt/AiG40sN6HYLqzSs/lfLoI5bR11Wwdb2z/c0kVcat29i0t2PP6vWg4WWZ6/mbXh+k5rEWU8tZR/O6IVamDUYojh7vqaDoof/71jydw6aSxytK5+MXAOvu2v7i8o3nG1PqFJ6YjlexXA0MjXPNx89HA9uoCNFZXmpq/yCZl8i2IyTzXLUfnF3V0HsH+tx6kWwqJAc46SedI4tlk/ijJM33iSBfgvx2xyhIjj/jst/WgzsqPfxFivdQLxHqq2juGDlzpc8ktup/htvNUH6RxxRy7Wbk+8PfD4Ll/p2tfQt3GMOcXJVtXo2D9CtPzN7s+TM9c+ThV/HRHrM7Sxs+dlgNtRqwm11jcZ5U4+jJdqtJ9VWuW6cbzNkJIbBIyr3tcN5nY6VWdf1A3HkdgDhjhgB2xyiM3/3YNO9aOomNNnToP0X2H6Mpi3uplKKPLAM2WP3FEYeqU2zTzF1tnd74yD370kWJ2/kyva/Qnb9uR7ViVOrMu4jeMWOeSjtVZp2Vy/QfcuBCW6O7aA5u8jbU4x/4Fb0/gY3kSR12GHqOm2sl5eqg5lo2DK56ivCkzH/Pj9MThUyhPnYW/jFippbriKmtHQKyWyFgMnPOMoqe5D20NFaXIWvksGivoVgAT28M/IAh9Jt2EmDO0F65O/LIBed8u65JyYCY/u2I/OVX8YR2rez/vEm8MI1alVYCJtY8dOBa9J92gS7GmIAvZny2Cta5aN643EYT9asaMPyA0MVU9GaHU/PUfoHT7avU4HMIc8JIDjFhNREgdaUY3G7EiIACBllCvEGXyxOsQ01//GhZxNkDeWkKMZOrkDYJAczOa6mtUkaYlPAaZ1z9OFgFhqt2iuakBuV8sQcXhn1XpdKR29YY/XO72s3d1R6xKHZNSJDncVYfUQfnTZsSq0r7dzxyP5AuvVda2Xf0VB7YiZ9Vi1zI4lT+y9wCkX77ANVzhs9ZWS/rV+jK6S0s4p/S2F4p/ObxTyL+i1Rze09R+dsQqS5Q8I7Lf1gKdlR9m27H2mnA14gzs93dI8Kl+akHBhpUo/u9XEtL0JK9J465EwvCLNAtST3rd/W+S/ay1keI5EI4nehzO/DE6HrgjVk0x5MDOwoE2I1aVCgpdZUTKQJXQ0/+6uZE+4b9cjMqcX1Qzz5z9CELik1XDRUDZvs3Io6uz2TEHzOSAHbHKIzH/dg0rAbN1rAPmPAtLZDczZc8nWk209fXg+0/SaVSlHnWjAWERGHTL87o3wopDtcv3/scr3S7rLh3IlccLz+MF27EqdS5dxG8YsRqwYw2wBGPwvFd8GgjNTizZni7/m/zF7iDf2n5RqYORNn2+472nJ7II2P3qH9BUW+UI7SLtb68Q18dVJ3ya+MGIlbBKV0QgZiLWsLje6H/tI/a+2hEe8v+9AqXbVqsiTbEpQG8rbf2JIux9889dsv0ZSbZvv2Yda0cYJU5BGQwjVgN2rNEZQyC2pnYkt/eN+9BQdcJjkfz8/ZF6yW2I0tlKW0YqgLxvXvdIg18yB3zhACNWRqy6iC067WzEDh6nG09G/oFkNxreO1NXLq31tbaDT8ge1RuEZa09qblTKig0CunT76KNAWmaZShYtxzFtDFALvcp+aXtnf6Ug6ghn0Xw69HNuiNWpQ5CKZpdLNxiCUJiXCx+M34kRg4djB7xsThRXomddLr+mnWbkJ1XgNo6p/vtvay/oJ+U0B3jRg7BiCGD0CspHo1NVhzOzcf6TduwZcceKb8WsU9dOC/p2xI5/duavs2I1UP+4uR9gQIl5yHcKXep/NGZI2kr6Q0urz15Tubtk+xQW8hI3+4M0BeDcIu1yZ7E5YHSi9tg02f+EUGRMS5Bzh7bxgAPVgUG8qdxUtUFBFkQEZ+A3sPPRdKZZyK8exwtoNGAQnRPlhbj2M6fkbt5I2orKmBtcKq3TNHH/M2SH7k4br9cPledrZJBrfyxI1a5R8vIobP4r54xiaomJF1ucdffehLej7783h4u6hcaEoILzhuKSRNGY/YVkyEGPy339dqN+PCzb/Hthi0oq6iUEI6cnyd+xcZEY8LoobjowvNw1fTfSh1Li37p8XIsXvoB1m/chq279qHZKupgq4cn+gJZ6YWbbceql59zeMpFc9Bt4GitKkthx3eux9Hv3qakvtfXOX9pY8DMezTPgG2sKsPhT15CTekR3fbU5Dc1RVRCIuL79UfvESORPJR2mtFAquea6V6vgu1bkbdlM0qzDuJkcVHrGTA23aBzfTTzJzlxDvcLDEJUyiD4S+fPOhCiJ3qVh3bYd655Chf9Skv+LFFxCOvVX5JGEVM6I1wGCEJ+pf+aUXe8gP7PJ5Zo01MLD7SEkVrnHBs9oi+meBmIUK70JSD43YyTBdl0A8RxF36A7jnz95NSSPlbrQ3w9w9ESzNNzFL5iB6dKSFP1Fr1VSufM//l9O6IlbLvTK48a51mccsqqpA2zHa6kZD3CaOH4a9/vBkDMtMREmzRTOscaKXP1Z27DuDRZ1/Duk1bnYNcnkcOGYyn/3onzh7UjxqwFeW5xFD3HD9RgW//vRl/fuoViGdfXJsRqy+ZtqYdePPzCAqP0qFEBv60R7+EFqDMdgnDL0HS2JmaZOtK85H14TM+nU8QYLFg6O9mo9c5QxFOKLUtTgwQNaUlKDl4AFvffQt1hGR9cYGhkUi/7G7t8xFaM8ha8TSq6ZyGtjqRT2TambrJS7etofMYluvGU4sQd85EiAsptVwT7aDbRwuRyvMmek38PUJiesCPBlhxPOTR794htdb5OJm3CyePHkBQRAySzrucyve+W1qt/PTC7IhVHmk722/5oXWadZQG1qFTERJiwVXTJuHZx+6GJUgboWoRFB3hjvsX4sMv1qK+vpEmPRtiCAsLwc10gd+jD+hf86xFX4Ttz8rFjXc+gr0HcwgF0IzsNNPL+en9mmkV4E3+QfYTrbRr2UL1yv30ZZSfgj36GWRmpdfhBVo7/NnL9vbT46dzuLjtNXnIUIy4/iaEdovVrqgXoQ011di45BUU7voFTQ31bWp3fzKNS5syz9Bmjtwvl6DswJY25SMtaE4ztqBZkbUNhz9/pU35BISGI+Oy+QjVuoyS+mTh5i9RtOkTj+0Z1XsgxLm8YlAVZ170HHM5qYt6IfvTFxE//GKEJ6ThyPdvw1pT5TG9N/Ivy0mnt2M1gljPoBnpoXv+B3fMucoLMVeP2tjUhIcX/hOLl31InxQ0sBISfuz+23DzdTO8QsHqOQBH8oswZ/5j2LyNbg11/rIUX80G/IYRqwE7ViP5yXWJSj2L7Efvkr2qvy3NVrpj6iHU011T3tAnydeM70effYPmvqR7FYsNLX8jfQ56k39weASGzr4OqSNHw58Qq5muhb6Kdqx4HwfXrkZjXa2NtE59lfzw8wtAn8lz6PCbEbpFK/j3cvpiWKPJTyV94Q+kwS6VBu/w5P66eYgItUW5OPBe6y0OXtZHLJz2uXQu/EnFoeZsap0XUSvUDR7oR/YZQIet08D6/TukHgpE4qhpECqT8v2bkTDsEtRXFKFk+xo01dB9ax7SeyMfcvpfBWKd/6fn8H+LHqbJyrtPc7WGFO/rGxoxZvKNyD6SjztvusoUpKrMb/e+bEy68nZUV9dRe9mQsdHf9kKs8cMuRs/zZymr4uYXFgG7Ft9FurK2IXI1PoQmpKD/7Ifc8lO+OPDu41KHV6Pj6b2FBpQx8+6UPv2V9Hz115SVYfMbS5C/Yzv1Y4cu0lM59MKT6fM37uwLdIsk7vkSn+h69JThMelDkDL1Nk0dtnPm4jN915K7vM7HnyaJjFl/1B3Ay/ZsRO43b6jSVyLWpFHTUbpzLZLGzEL5wf8iPCkDxaSSMhexZowXY3SndXqItb6+AeWVJ6XVfrMreSjnKB5/7jUsevp+REaoH03nS76ffb0eN979KKy02OGNM4xYDdixGs1XoMXkC68jHdZY3STl+7cg96t/6sbzNkL80Ek0sF+pmcxKRw2KHVfygoVm5NbAiIQEnHfLPMRnnmEkuuE4QrWUu+kH7Pnic5QdyTWcTitiwohLadCYoRVFCivf/xO1wau68ZwjCF1l5tUPITiul/Nr3efdr95DiNBph5tuCiA6/RykTrtDM6aV9KYH3n4EDZUlqvHEYqYdsVL5xa0Sx35cid6/uQHHfvgQ8cMuciBWVSreBXR5xOodOzpebDExXH3Lg1j7w0+qM7ISUQh/eyDWADqv1abfG6DLyLzVS+mOqx+9RuJ6CC6V9H5C/6flqujglkMfv2iYn4Gktxw77y4kD9P/vLbnSwNms7DPlSZEPwR4sDwRn/57Vn2OHcvfU0XutGRN5aQ1b1rF9tTOnvgRN3AMki+6yV4UtYdqWrw5SJcoGqUr4iWcSwuDY7QXBj3ll/3RC6jK3W24vcUA3u/qBxEa39sTOfu7ItKtFm78WJNuRK9MRKWdJQ2iQsfaY9hkFP70ub3eiSOnEYL9HsI+2hM/veGPnN7dKkCpY7BXofWhg4XrIVZl8WW/QArVNbU4cCgPVVXV6BYThYy0ZISFhuiaR8k09H5FHiera7GPFqFqamsR370b0lOTvdbDLn3vMyx4+EWpo1LLu+rElIVoDW8zYjVIX5mt8AeGRaHvFQ8guJvOCjnxZc/r96KxutydjC/5h4Sj76z7dNHUsR8/QvGWVe55izce8j971lUYfJlAgM7Kbc/J6yorkbNxA6oKC5H/83ZUHy9FyrkjMfaOe1wSlOXmkD71XRSQXauLc8o/ss9A9KTV8LriPFp4eYvsXus8lk+ZPpJOIUuf+QeX15489eUl2LfsT65BTvm7BgDBMQmSfbAlyvsFOzvPNehL+bWGR6UMlnSrAZYQZTHsfqFbPbTyOdSXF9nfeWo/RyA9GczfJY2zx2B6O2KVc5RH3M7i17MKcOaJ/Jx/rASXX78AhaVlpCttkBagAgL8EETG3fGxMXj31b+hX7r2TCnTUvvNOnwE1xDSLDp+Ao0NTTQoWmmyDKQ8AjCgbxqWvvwIEmnjgBGXQ5sURk2+AXV1VFb6EzOoXvu0hx2rJToBZ9CJ/QJtaLmGyhPY+8a9FMWhS9Srj5Hw0Lhk6eCVII1TuMRkd+iDZ2nH135D+ScPG47z717g2CChUjGBPn/5eCX2fbOKDnWplRCoXL+McRMw+tbb7SmL9u7Guv9diCbaeOK5Pf2ReN40+kS9WFq0EbTz6IjE8qztKvFd5SE0tqd0c4I9Q5UHSc+95G4BhymGbcTwXB4b/YRzp5Bp0nSqlv4Eo8yy4uA25HzxD0PlF/KdMvlmuqtspJKMi//Erh9pB95SaUebkfLL7WGk//hKzx2xuhS943u8QawCoT745D/w5vLPJTFSq53YMPDYvbfixmumIdgLW1dBr4x2bT301GK8s/IrNfLSe6GTff7RezBzykQacAM044rA8VNvxs97D+rGkyO0GbHKBNrwK1aiUy65VTdlVc4uZH/yom48byMIlJMy9XYajNRX6xtPliObUE6dfGOARiYWsgC4YMF9iOunvT33xOFsbHvvLRTt3euRWv+Jv8WIG+egobYGOz9cgQNrvqaBVwxk7s4SHY+e464gneBQl0CBLrOWP0mD9kmX9548QiUz+PZFnoJc3gm7zj105oLS9tMlUqsnKCyaPs3/QrvZunkK1n0nDhTft/R+3XgiQghNDP1//7Dm4piwKjkoFiBLjxqieboj2RGrPFN1tl+jiFWI8azr78V3G/8rIVS9egpQ+MQDt3lloiX6ygxCwus3bYeVGl5PNxMSHIzFzzwgDa56Df/Ui0uxcNGb9hlfr/ztoWPtPfFadD97gl5V0NbVaD1+xg/5LRmS/04z/5rCHGnHVWOtbQedFh9TaCfVmDvmk5pTfeKrLMjHd8/8jbarlqi298DJU5A+bjw2LHoBlYXHJDDkKd9umbQNduwVUPvU9oZvg+a+QGZRkZq8EIeF7yOTt8ZK/dtxUy6Zi5jM4Zr0tAKb6YrzPeKIRo07yuT27UfqpPDkflrkULpjLfK/J900/cnpOtJvl7djFa0jFhFefn05/voMrULbvngcjabhz0hJxqr3/27IosBqbcbTLy3Fs6/QFk3nLyUN+qIQI84eKOURFKT9+bxm3WZcMYdmfB16crhhxGqiHesZ1z6O4O5JDt56eBLmVUfXvo0TuzbYQg3Wx05KI34fsZV2wCh7VE8P4pNUWCMIxCM5FXrifISLH3kCsWnpnshI78SOqW8eexg1ZccdcTzQSzhjACoKjqK+ilbFPYQLeREWFT3IvrLHyCkOWoqnBhoAhRqjoarUEaJCr++s+3UHJzHYZb33JNl/OqE+D/QikjORNoMmGA1bUmFhoaUCEvw+8M6j0vZWrf4hFprSZtyt+dUhDjnf/87DtnN0PZRXi74a/+0MNYne/wMAAP//VV9QTQAAHNdJREFU7V0HfBVV1j/pDdJIBUJCCB1UlHVxlSJSRLBXsCIuWHYtrMuKgK6CddXPXevqqmtBXdZFKYprAfwsBMuqlEBISIdASEI66fnOmZeZNzNv5s684S1fypn8fpl367n33Pafc8891y8yfVKHH/hBB/51x3fV/q1g9Rwqq4DL5i+BXXv3e1VPfz8/eP7xpTD3kplWJCA3vxguveH3UFBS6hUf/QP8YNM7z8AvTxsjpJFfeADGTb3advnfemElzJkxUZjnh59+BfNuXuZVec36SUBYHxi96Cnw8/MX0mxvaYSC9c9BTVGWT+iqyzPy+ochJDZRSL9023ooy1xvycfE0WNg2tIVpnk119fDV88+DQd3/uyzegQEhULqeYsgMv0kQ7od7W1Q+PErUJ39rWX5B067DvqNnWSYj+zZ0dYK+//1BNQfyDXND/z9YNCMGyFm5BlyMo93S30NNBzMhaihp3qEyR4d7e1Q8MGfobpwlzm/sO8MOPtqiDt5ipzM8F3+81Y4sHU1QDu1ftect/yihkzuMCx9N/Gsyt1qWdLM73fCnGvuhNbWNsu4+ggzJ0+Af7zyqN7bw71242ZYcNdK6Ojwnp0L5l0ITz54l0eeao/augZIOeU8tZfw9+rnV8HsGWcJ49DEevUty4Vx7Ab2TR0N6ReL60B5teIgzP3nY9BUddhu1rbiBUoT+9OWcfNxcNcU7BTHwwX1VwtvgcFnTTaNV/xtJnz1wjPQ3tpqGsdJQGBYJIy4YRUEhIQbJj+a9Q0UffKqYZjaM37cdOg/+Uq1l8dvmlgLNuAiJ+BHSHQiDL/uQfDzD/BITx7SZL/xeQhLSIXECRcYxpE8cVwUf/o6VGZ9ZRonMLQPDL9+FVBbmj1EL3fNo9BwKN8sSpfw9+sNiPWJ596ElU/9zXylxBCzlS8hPhb2Za61bKy7lj8Jr72zwTQfs/zJ/5RRw+CLDS8LaTQ1t0DiyOm28z/RiDXh9PMg+cxLhHWgwKaqMsh+435ob2t21B5mfIwdOQFSzr3Jkv6uF++AtmP1Qj6G9omEacvug+iUQab5fbLyPjiSnS3Mx8kXICHEgVOvNUWbzdUVsOfVP1jSlRa6S8QLnRUC9g8IgmFzl0FofIopH2rydkL+uj9DzOgzIWXa9TgBm3+xHPpmHRzavt603QdNmw+xY8VgoArReuFHL2P9203zccJ3s37l1N8TsRLg8jPlIy5RXSvcDmJduPghWLP+U1elvCy/H6KXozlbBAxxBV14zWL4IvM/jviTGBcD2ZnvC2k048SaMGq67fwdI1Yv+SMXOm32LfgpeJrsNH1XZX8HhZv+ahrutH8NmnkTfq5OMM8XQxrLSyD7zT9a9u+Y1FQ4++6lEBYTY5hfVVEhfLhsiWGY0/IrmSH/o5GPg2YvMhWrZL26BFpqKpUkmh+d7Rcc2Q9G3viYJkjv6OhohwObV0PFzi/cQar2j6XJcvp8d5juV3trMxR9+Feozv8Z+g4aBWkX/Bb8A4N0sdzOih34Cb/5bWlSdPu6foX26w/Dr31Q761xE71dL9wBHW0tGn+NQ1V+jb/sOEHhCmKVR6w8Q3cXtx0Z67yFy+Cjz+kTxI1Mvalf9X5Vx5MbSPeeetEi+M9ON4LxJv+kuFjI3m5jYlUhVqv8V6OMdbYXMlar/EThgSERkH7RHRDef4iOK57O4s/fhModxE9XD/dFfwsIDIZhOChDouM9Cap8jnz/bzjw5RoJ6YjoJ48eC1MW/x4/x0NVqd0/f/rH27B7wwfo4aw/EaIS0Q/uE4OT4qPgFxDoJqr6RZPZ0X3fCukHBIfCyJv+hHUIU6XU/+yAg1++B8QXfXkCQsMh/YLbIXxAhj6R4q4rzoa89X+BjuYmCI1NgqFzl4M/0jV7anJ/gvyPXgBoI5Gcu/39UcyQfNZlEH/aDLOkkn/5j59Dyda3LdvPir8nItwTsQqr1vUC7SDWq25aCh9v3ea48HZoTLlgIfyUtc8RDa8Qq00KjhGrzfzV0UKiEmAwyletJjZKs/f15dB09JA6+XH/Do1JgowrlkJAWIQwr7y1T0EtbppZPSnjT4dJdyzGaDQBej6bViyFyoI8zwAf+hDaJNRp9BzevgEObVtnFKT4+QeFwLB590NITILiZ/Sj7NsPofQbz0U9atjpkHberzGJMQ8or32rH4BjR4qlbAOCQ2DkAprIjWXDFKmhNB/2r30C2luapDTyv8DwSKn9RP2nrakBSD5eX7pfTtal3wpilZFDd3vbQaw0sW7a8o200jmpnx3EOvmCX8PPu3NwHfZ+l9IJYrWicyJlrBFJ6TDkst+BP+5qi57WY7Ww68U7HbeDmewsevDJMGjOzfgZGmxKngZm9uv3QXP9UUv6GZOnwoRf32yYV3tzM6xfchfUlR+xzMesvHb80y+6E/oONtYUqcBd8eLNbwrp+wUGQsald+NXhDnipAqW//Q57rC/i5uubpllUHiUhD6DI2MNeUCeFTv/F0o+e0PT30dcfT+EJpjLpZtRfJH91n3Q3tSoSZdw2rnQf9LlprQooDr3Ryjc+AIqArQJ6201Lk5UuF9UOmoFqBclvQyii7vtoEkNYnVQHzuTt4JYHeSfGH8cMlYTerYR682oFXCc7R89YgKkzrpJODAosBZ3n/Pe//Nx09OXN+7U6TBg8hVIQV0RbXGOHSqA/e8/BW2NDdpoBvwbNm06/OIG4/q0HGuAjffcDQ2VFS4CBuk1xXAYnjrrZogePl5biU5X5e6vcYf9NSF9EiOkzULVrYxxhnnInqRlUPzZ33F3v13Jr/+kK4Sf5aTZkY8igIbDBfIXvZRW2nQ7abKctcebaGS9tBhaG+uUMNIEGLHgMQhAhG320KS/5xWUK9dVaehJ8R3yV6H1X0rPiNUGwmTE6pYlGq34A6fMg7hx5yh91ezH4e302bkW5x1xft6GD5p2A+4mTzQjK/lX7f1WUlNqx40Pq/wzJp0NE1Ddyuhpa22BDXcTYi2zzMeKjih8MCLWSBPESiizZItL1mjUHpQv7ny5tAtOmmRUDcWvBpFgwYcvQnt7q1SfkJhESW0uOCpOiaP/cXRPpkvlCydKNf3YUWfBoJnz9dE17tw1j6HebOeXHeqtkopW0oTzNXH0jvIfN6NsdfV/ld/qeojaxW48lrHqW9HAbQcVK4jVIL2VV3eXsQ698l4IT04XVxP1GAs/ehGqcn4Qx/M2FCeQoShftaJ/OBPlkpliuaRMmmSsE29fjHOTMQL+ZOUKOLLPmTxdpmH1Hnnj4yhjNf4UL/3qX1D2/SarLCDpjIsh8ZezhfHqi/fC/g+exp12lz5u8pmXQsL4c6WJ2SghqWjt/fsyaK4p9wgOjU1GndeVHv5qjwNb35HED+QXhJt0JPIIjRugjqL5TeKj/HWIjru43qqm0OhgxMqI9biQAAQEwEm3PWe6gy13ONIdJX3HOtx88AUikJED0R+z6GmL3W+AQkRlVfu+1yAss3Ikj+rUCgg1lhnveG8N7PjgPZ/WQ64PvUMi4/CQwEOmPM3/4C+SipNZ+WX/+FOmwYApV5lOktQ2JCKhAxttqMoUEhUPI1BB30wbAQWxuDhtgMNmJ9cQgY79zXNCWbckxvjkNakd+uFprpSZC4Tlk2SrKkSt5pNcz6749kSsepmDPDLkdxcLt4MmhTJWuV7y26B+dmgoiNUgvZy19DYI9wqxGqQ3yt+2jFV/8spm/jLNiP5DcUf3D7LT9N10tAzlq09BczUiHWMg6ErrJf0+A4bBkMuXmNKVA7LfWAGNlaWeMjo5gvxG+tGDUmDq3fdCWKwxYqwtLcUNrDvlFNq3l+XXJkYX0R+Geqx4tNXoeDDJG3fTIYemYx5JJQ8V/Rjc2U85d4HpqSmK33T0MOx7+wFJxpo2+1bT47RS3MrDkLf2SWiuM9GhxUjDr/4jHigYSNENH9IiIG0COkgw7JqVqKaVaBjP5dkB+95CzQPUP1YeVf0UP/WPLhKuIFa5x8krQndx29lYkiZW1AqgEe2kfnZkrFNQK+AnlVaAN/xzohVglf+J0mNN+MUs1EG8VN21DX83lObhufQnoQ1tBRDCsCq/3XCrjRYqTBuq9+x67jYpSzvtHxLRF6bfuwKiU9MoueGz+dFVULprp6P+JKo/nbxKOed6iB1jfAKpESembJxs7PCnb8pIVINDLQwTfViqGJ3z3/vaUohAHeRUPOQh0ns9TKpZX7tk5Gb00+aID4rQBtaOZ26GfmMmwsBzrjXkrexZuetLKPr07z7tL3baX9Q+dtN7Ila5Vt3kbQdNahCrg3rZoaEgVgf5e4VYbebvGLHazF+ONhiVyM2Mhshx6H00axtueLyi9vLJ7+FoeCXUQldTOga56SWv6E1YsBCGTDHfkCv54Tv4+sVncYe70at8rSKHRCdAxuX3QGBEpGHUIz98gkr9awzD9J6h/Qa4lPYFp6HacTOOdupTZsyHqIxT9Vko7haUdeasfhB35o8qfkY/JBktLraiJ/fdh3FSvU6IbFsbahAdP6VFq6JMu1iYgljlmbi7ve0iVtZj9ex5x2vdKjA4HIZedS+E9Ev2zFznU7L5LSD9S1/2r+CIGBi18AkdJU9nwYcvoXx1u4R87NKPHz4cZqwwP2JJxle2/OkRKN2906t8hfRRRjn0SvONuPaWZtzBfwFq891IWZRfECre0wkuOiwgeoqQPynnLSRFAtOncNMrULV3m2X7xY4+CyfpG0zzoQDqB4TIRUia5OFFm15WtBVE9SSE2dXCWY9VL5MxcNuZvBXEapAe2939GIR3Vz1WOt+dfvFi3N2NdtfP5BehnYYjRfIXpDuWAT+s+CWH27GoRbvdu1/+Heqv1rto2qRHGgEzVjwAcUOHu8uq+kUT696PN8KP776jlRkb5N83dZSEvAiF4QxgGJ8mmcTT5+Au/hwVFe3PpvKDkPvenxAl17oDTPKjCCSjHbXwSbQW1dcd3+AXyWtFIoCGg/vxxNSTaMmr2bT8craRaSdBqsVhDcpHdJiD8tqPG2p1qJZlxi+ZXlcNZ8SKLWO14tmRsfbGk1eRg0ZD2vm3Cs+H0wAgpLXj+dvAz8f2M+2c2GmqKIW9uHHlBNEkjzkJpi6519Bi0/dvvgY5n38u7aab9R+yDjXg7LlooGS0pDLUWHHQtBwxhPTOuUaI4ko+ewvKd26x7K/q8mQgAib5qdOHNsuIbsWuL2zRDUtMxcX2TsvJXFSealTJy0dk7oeLhpN2U9f//ys9y1hFLdwZxjJWYybF4gZECsrKhN+QmLSuaI+EeIxzceZLu8oDp15nuskj51qNn5QFqD/r5AmOiICJv7kTknCClZ/K/Dz47o3XoDxXrMcanpiGCPR8Sf5MJ4ZoN73RwEYCnZMn26nx42caagHIdMmQdO57j7tPSMkBFu+UaXh4wmQjzCKpFNxYeQjtnz7sOrFmI0Fw3354vHkJBEcZ2zmwyoKOHue8s0oyL2kVtyuHM2LFNdFqhWPEaizDsnvi6hBa7SflfCs+exPuj0Y/0i+4AyJShgnHF9kAJaMlTpFLwogRMH057cID5Hz2iaS/2lhVLcyv34gzIAnPvgdFREnpmmsqJEv9zVVHNOmicbMoacJFkoxaZMe09VidZJBaObGEnLRbnzi0GDUAj6g6fciotOiGAX05yEbB8Ln3QUhcf0ckK/GIbQkaxJZPgunz7y5uT8Sql9no2dPFwu2gSY1WgIPy26FhKmO1wT+vtAJslt+xVoDN/KlaGZcusZzYSKk8H0/21BTudnHCi/z1rJPcnekJ6Q2duwKC+8YYRiNPkq8W//vVThN7ndEc0B85aw60NjVBzma06StIHxQRjUd7Z0D8qedodEfJ+EgR2qBta0ZZJm74UZkTxs9yGZAW7Rh1Frnsu01wCC1Q0We5iL4UXVc+knkOvuj2zpy8e5FyfsHG57SJdPlrA9GF4YMv/C0i9ZM9gqw8qH75a5+G2uIs86g26OO6Y/6coPQKYpVbTF4RuovbzsYS67Ea9zO1VoCT9h596zMQKDATR1QJbe1H1CMp56uQlhN6tOsj989wtKKUMW+58POZPitJd/bY4UIsiWtEyem9cfvjJhDFxzVCoa9PTxt5dDdUWFIqxtWObJrgaXKlDZuAsHB8kzFobRz0MHwqUJfzIFqforvC1PXX0zdzSwav0ciJt097cyOeVkMj1gU7sKRUVvv8Sz7jIrQBID7/b1Se2oLdkIen8xCuekXP2/KdiPieiNWoxl3Yzw6a1CBWB3WxQ0NBrA7y9wqx2szfMWK1mX8Y6kgOu/YBy9iNR0og74P/QUX0asu43kSIP3Wmpam5ltoqVKa/H08pdWoEeEPAZlyaJKPx03/A2fPAX6CIbzM7TbTqnP+gFatXEekeh64szoljf/Oi12WrK9knnZSTbQhoCmbhIH3YtDm3WsTSBpM+LZ2OM7JBoI3ZPVwKYpVX8u72totYWY/Vs0OqEau37R43rvMcume2Gp/a/F2S7qV84spbOmbx0/E+J1K3Ej21hVnSppk3slszekb+wX1iIXniZZJivehKElEZDcMQGpf/vAXKtm+E5oZqCTEa0bdbr1FkNFtgrUpfBprkct59CGhRdEI3lGwOoP6sN4/ahoDdenXleKzH6vrCcfcBA7edyVtBrAbpNV99BuHdUY+Vru3oa3JNs5uZqAyO9xzR4QDlMai/FX/04aTzOfa2Z4WqSUTPde3Ix9qvbh/Qp/KExQ2E1PN/i4ZLnO1+K/zQ/SDr+rTZVvYDXpfikj0cd/kzrrgHIgRXrOiKgNantriul6YAh/wac+uzKE82NmKjp0diB7ottrZ4j2N6Sp4Oy+vr9IxYsedYrXysFeCWbRKCCQgMQUTyiLLrrXRKgx/Fn+EdV3hZnRPkY9YufZKHQAae+LJ66OLAY+XFlu1rRkfkT/qaSajQb2VI2qqMcjiZ46vN2wFlP34KDQdyfWopfzBd9DjM2Gi2TF9+k2oYWc9qOFJ4XHyTTpDZ1J+tK9zjujsLkbIv+4mo/f7bdFjGKvcowZtlrFrmhMb2l46yii6Ok1PQufD6Q3my0yfvuFPOQXN4c4V50abZ7r+aWKASpvQiEDe1SF+VDG07VS8iamT5q+jjl/H+qEKv9VTtlHbApCuBblmw80if5HijgISW7SQwiUP6zbFjJ5mEar1JDt5YfkDr2c1djFhxjbRa2RixahFrdPo46dii6Kw3jQuS1dHk1o63ePoMIeBn+KDpN0Ls6F8Jhx6dp8/Dy+d8RlfQT+iEVWh8CsQMHQ/BeFNsaFwKigjQAr+BKhWpFDVXV0JTxQFpo6Yq53vJiLOdmw2s+qlZuJ0TasTMVrSZm/PuKtDr25rlK/KnGyWsFj+iWbV3O16H/vIJaSdReX3dTzwRq15GQbVXP10s/It1L6lLZ/j7ngefgW0/7HSFOSi/HRoL71oF2XkGZ+H1JTKgHxsdCe+/LjYm0tLSCtMuw51Wg/QaEp3hq+65BSaeMU4TpHd8lfkTLHvkea23jfzjTiWl88sNJw51ZnTGPGfNI2ov2+XXJnK7/ABRYvJgCAw3Of/eWX6y+6qx4ylnYaN+uNKaP6L0OJH6+weCP16bTVeCB4b1weO+YZJOawdefULy05b6Wtzlb8DFphFoMvVAhqL8qVQOwqOGjIPkX13sai9B+iN45QsZSHFcf1X5+uAlhmTBymNxUdEnfhzAK2Y0XzSqcMrO4+km4QpilVtMnrnZ7WpB5ocL0Sv9ASedlLOvgX4nT/Ho83qPw5kboXTb+9IXgZK+E/mxm/sXzeA9dXx5Ilb96GA3c0DFAT//ABhy8V144mqEytf45/5/Po4WivYZB7Ivc6AHc0BBrPLKwW9rmeuJlNV0tfagO6ZGzX8UggRHSWm8kCm6Pa8ulUzc9WZ+dbX24/KcmPHd7fVYPWROehkMu7Uys+PkB2kEDKcTVwYbM2oAcqysCC+pe1ySJWpkdsdJn9sbuayWATM/uyQ/GLF2yvx4Jbe3kiefdQkk/OI89Rxq+FuyAP/x36QNGkasblki9zN7/ay784llrIbTAnsacYBO0tAdU0Em9zGp05R9+xGUokUm1yaVOoR/Mwd6PgcYsTJilXbt7SAEuk45dfYi61GBRzEL8e74KrStaSdfRrSMaHtaP/FErHqZjX4YcbhWptNL+EMX0qXOWmTrRlY6npnzzkN4kgj1evUP959e2X+UbtBL2l9BrKxX6GpxeeVkfmj5ETXkZDxtdavGgLMyWHQ/yETgnr/djccziZsumRrzU8tP5kfP5ocnYtUNEnYyByKS0iHtwtulk0R2uFH69Voo++4jO1E5DnOgR3JAQawysuB379i1tNvOZBmfkGpobJKtAdDW2ABZryyRriFh2SnLTu32s54Wj/VYXV8k7kmD3ZIMMCA0Aq9tHgX9J19lyzygi4EdaH/1S7S/+gbzU+YA9yetTLmX8IMRay/VCkCjqng8qlWRgcqIIahvLMQMPx0ih5wCYQmpnfczybOE+E2nrfLX/QVv9czxyFfOn9/8RdQbvmRYxiqeK3pkKN0mOuTyP0hm/VpqynEfpU26PTQwMg6CI2OEF/SJGHI0K1O6o0m6TVQUkcOYAz2cA4xYeyFijcRPfJKbBoSE+ax7NxwqgPz3n4aWxlrberG9AbkwQu+dCN0TseplIPqhx+FamVE35E/8eLzhdCLaU/XR01pfg3cWPeuyq8n9o9v3D40tAn0f4fa11b4KYmW9OlePkRFGT+ZHxsWLoU+a+IZT/Xgyc7c1NcCBz96CoznfIcuIe6y3Ski8J/cfrp91+3oiVrMRxP49ggN+gUEw5pZnvL5n3qjydK9UISLVuoO5RsHsxxzotRxQEKuMNPjds2VCMaPPhEEz5h9Xh+9ob4f6kn1wOHMd1B7MAT8E+9xvena/4fb1rn1Zj1UvM+rh7qFXLsc7o9IcT6wdqKJ18Ms1cDRrm3QIAGdUrcyJ3cwPthcLjFg7ZYK9YUUO7hMLw665D4+mmlzEZzLdkhy1qfIQ1BZlQfnPm4E2q3oDv1hrgU+OOe3nLGM1mUx6orc/yldDYpMhPHEwhCcNhpDoJLxiJRYCwiLwvEAwIi0cSHg9Mx1LbampgGMVJajsnwvHygqhpa4Sr1mplzaoeiJvuE7MAV9ygBFrL0KsjMAYgTlFYJzOWxnrkMkkFXM/ehmZO8T1i8O1MjTmj5YD3D+4f6hlrNreIWuh6X3d7h7SfxTEKtdYXpnY7Wph5odrpeb+wP2BVgweD/bGA8tY3Wsl/2IOMAeYAz7hgIJY5ZWI397JUphfzC+WXbuRLI8H13hgPVa9TIfdWhkh84P5oZaZcn+w1R8YsbJWAFujUskOGXHxF4gvvkBYxuoTiQpnwhxgDjAH3BxgxMqIlRErI1Zlt58Ru28Quydi1ctQ3JOw6xeHa2UszB8tB7h/cP9Qy2S1vUPW2tP7ut09pP8oiFWusbxisdvVwswP1wrO/YH7A60YPB7sjQdPxOpeO/gXc4A5wBxgDjjggIJY5ZWI376RsTAfmY++2F3mftQ9+xHrseplOuzWygiZH8wPtcyU+4Ot/sCIlbUCWCtAJTtkhNg9EWJXazeWsTqQn3AS5gBzgDkg4gAjVkasjFgZsSq7/V0N+XXX8ngiVr0MRT8tc7hWxsL80XKA+wf3D7VMVts7ZK09va/b3UP6j4JY5RrLKwS7XS3M/HDJ3Lg/cH+gFYPHg73x4IlY3WsH/2IOMAeYA8wBBxxQEKu8EvGbd0VZ/9KNzHg88HhwMh5Yj1Uv02G3VkbI/GB+qGWm3B9s9QdGrKwVwFoBKtkhI1RGqE4Qqr7fsIzVgfyEkzAHmAPMAREH/g9QGccj5BFw2AAAAABJRU5ErkJggg==;" vertex="1" parent="1">
          <mxGeometry x="50" y="1230" width="110.92" height="48" as="geometry" />
        </mxCell>
      </root>
    </mxGraphModel>
  </diagram>
</mxfile>
